<svg width="30" height="31" viewBox="0 0 30 31" fill="none" xmlns="http://www.w3.org/2000/svg">
<g clip-path="url(#clip0)">
<path d="M30 15.2744C30 6.83768 23.2852 0 15 0C6.71484 0 0 6.83768 0 15.2744C0 23.7111 6.71484 30.5488 15 30.5488C15.0879 30.5488 15.1758 30.5488 15.2637 30.5428V18.6574H12.041V14.8329H15.2637V12.0166C15.2637 8.75294 17.2207 6.97491 20.0801 6.97491C21.4512 6.97491 22.6289 7.07634 22.9688 7.12407V10.5369H21C19.4473 10.5369 19.1426 11.2887 19.1426 12.3925V14.8269H22.8633L22.377 18.6515H19.1426V29.9581C25.4121 28.1264 30 22.2493 30 15.2744Z" fill="#DDDDDD"/>
</g>
<defs>
<clipPath id="clip0">
<rect width="30" height="30.5488" fill="white"/>
</clipPath>
</defs>
</svg>
