<svg width="30" height="31" viewBox="0 0 30 31" fill="none" xmlns="http://www.w3.org/2000/svg">
<path d="M17.6367 15.2744C17.6367 16.7572 16.4561 17.9593 15 17.9593C13.5439 17.9593 12.3633 16.7572 12.3633 15.2744C12.3633 13.7916 13.5439 12.5894 15 12.5894C16.4561 12.5894 17.6367 13.7916 17.6367 15.2744Z" fill="#DDDDDD"/>
<path d="M19.4531 7.15985H10.5469C8.60825 7.15985 7.03125 8.76569 7.03125 10.7398V19.809C7.03125 21.783 8.60825 23.3889 10.5469 23.3889H19.4531C21.3918 23.3889 22.9688 21.783 22.9688 19.809V10.7398C22.9688 8.76569 21.3918 7.15985 19.4531 7.15985ZM15 19.7493C12.5768 19.7493 10.6055 17.7419 10.6055 15.2744C10.6055 12.8069 12.5768 10.7995 15 10.7995C17.4232 10.7995 19.3945 12.8069 19.3945 15.2744C19.3945 17.7419 17.4232 19.7493 15 19.7493ZM20.0391 11.0381C19.5536 11.0381 19.1602 10.6375 19.1602 10.1431C19.1602 9.64879 19.5536 9.24815 20.0391 9.24815C20.5245 9.24815 20.918 9.64879 20.918 10.1431C20.918 10.6375 20.5245 11.0381 20.0391 11.0381Z" fill="#DDDDDD"/>
<path d="M22.0898 0H7.91016C3.54858 0 0 3.54858 0 7.91016V22.0898C0 26.4514 3.54858 30 7.91016 30H22.0898C26.4514 30 30 26.4514 30 22.0898V7.91016C30 3.54858 26.4514 0 22.0898 0ZM24.7266 19.4531C24.7266 22.3608 22.3608 24.7266 19.4531 24.7266H10.5469C7.63916 24.7266 5.27344 22.3608 5.27344 19.4531V10.5469C5.27344 7.63916 7.63916 5.27344 10.5469 5.27344H19.4531C22.3608 5.27344 24.7266 7.63916 24.7266 10.5469V19.4531Z" fill="#DDDDDD"/>
</svg>
