<svg width="50" height="50" viewBox="0 0 50 50" fill="none" xmlns="http://www.w3.org/2000/svg">
<path d="M29.3945 25C29.3945 27.4269 27.4269 29.3945 25 29.3945C22.5731 29.3945 20.6055 27.4269 20.6055 25C20.6055 22.5731 22.5731 20.6055 25 20.6055C27.4269 20.6055 29.3945 22.5731 29.3945 25Z" fill="white"/>
<path d="M32.4219 11.7188H17.5781C14.3471 11.7188 11.7188 14.3471 11.7188 17.5781V32.4219C11.7188 35.6529 14.3471 38.2812 17.5781 38.2812H32.4219C35.6529 38.2812 38.2812 35.6529 38.2812 32.4219V17.5781C38.2812 14.3471 35.6529 11.7188 32.4219 11.7188ZM25 32.3242C20.9614 32.3242 17.6758 29.0386 17.6758 25C17.6758 20.9614 20.9614 17.6758 25 17.6758C29.0386 17.6758 32.3242 20.9614 32.3242 25C32.3242 29.0386 29.0386 32.3242 25 32.3242ZM33.3984 18.0664C32.5893 18.0664 31.9336 17.4107 31.9336 16.6016C31.9336 15.7925 32.5893 15.1367 33.3984 15.1367C34.2075 15.1367 34.8633 15.7925 34.8633 16.6016C34.8633 17.4107 34.2075 18.0664 33.3984 18.0664Z" fill="white"/>
<path d="M36.8164 0H13.1836C5.91431 0 0 5.91431 0 13.1836V36.8164C0 44.0857 5.91431 50 13.1836 50H36.8164C44.0857 50 50 44.0857 50 36.8164V13.1836C50 5.91431 44.0857 0 36.8164 0ZM41.2109 32.4219C41.2109 37.2681 37.2681 41.2109 32.4219 41.2109H17.5781C12.7319 41.2109 8.78906 37.2681 8.78906 32.4219V17.5781C8.78906 12.7319 12.7319 8.78906 17.5781 8.78906H32.4219C37.2681 8.78906 41.2109 12.7319 41.2109 17.5781V32.4219Z" fill="white"/>
</svg>
