<svg width="31" height="30" viewBox="0 0 31 30" fill="none" xmlns="http://www.w3.org/2000/svg">
<g clip-path="url(#clip0)">
<path d="M30.3877 12.9026C30.3796 12.7572 30.3135 12.621 30.2039 12.5244C29.9732 12.3283 29.6265 12.3546 29.4284 12.5833C27.0146 15.3731 25.3078 14.0309 23.4172 12.5399C21.9845 11.4085 20.4615 10.2058 18.4526 10.2058C17.7781 10.2021 17.1108 10.3438 16.4967 10.6212C16.098 10.8041 15.7311 11.0489 15.4097 11.3465C15.0881 11.05 14.7212 10.8062 14.3227 10.6243C13.7085 10.3469 13.0412 10.2052 12.3667 10.2089C10.3485 10.2089 8.55761 11.424 6.90688 12.543C6.36183 12.915 5.82924 13.2746 5.32468 13.5628C3.88574 14.3843 2.59631 14.6292 1.45949 12.6856C1.31754 12.4195 0.985686 12.3183 0.7183 12.4596C0.561325 12.5426 0.454495 12.6961 0.431681 12.8716C0.283583 13.8331 0.305697 14.8129 0.497087 15.7668C0.717599 16.8862 1.34246 17.8863 2.25371 18.5782C3.14611 19.2107 4.18817 19.6016 5.27796 19.7127C6.91272 19.8866 8.56531 19.7818 10.1647 19.4028C11.3583 19.158 12.5116 18.748 13.5908 18.1846C14.2677 17.8265 14.882 17.3617 15.4097 16.8083C15.9364 17.3568 16.5485 17.8173 17.2224 18.1722C18.3016 18.7356 19.4548 19.1456 20.6484 19.3904C22.2478 19.7694 23.9004 19.8742 25.5352 19.7003C26.6249 19.5891 27.667 19.1983 28.5594 18.5658C29.4717 17.8749 30.0969 16.8743 30.316 15.7544C30.5052 14.815 30.5294 13.8502 30.3877 12.9026Z" fill="#F1EFEF"/>
</g>
<defs>
<clipPath id="clip0">
<rect width="30.1435" height="30" fill="white" transform="translate(0.334961)"/>
</clipPath>
</defs>
</svg>
