<svg width="40" height="40" viewBox="0 0 40 40" fill="none" xmlns="http://www.w3.org/2000/svg">
<path d="M20.2199 9.54929C26.9598 9.61542 31.1821 9.19607 31.7523 16.6666H39.9713C39.9713 5.09361 29.8781 3.53369 20.0059 3.53369C10.1329 3.53369 0.0405273 5.09361 0.0405273 16.6666H8.19566C8.82663 9.0537 13.5359 9.48394 20.2199 9.54929Z" fill="white"/>
<path d="M4.11647 20.387C6.1183 20.387 7.78402 20.5068 8.15436 18.5377C8.20415 18.27 8.23294 17.9666 8.23294 17.6157H8.13802H0C0 20.5449 1.84311 20.387 4.11647 20.387Z" fill="white"/>
<path d="M31.8051 17.6157H31.728C31.728 17.9689 31.7584 18.2731 31.8152 18.5377C32.2057 20.3536 33.8691 20.2407 35.8639 20.2407C38.1482 20.2407 39.9999 20.3909 39.9999 17.6157H31.8051Z" fill="white"/>
<path d="M27.7897 15.6209V14.457C27.7897 13.9365 27.1898 13.9038 26.4492 13.9038H25.2394C24.4995 13.9038 23.8996 13.9365 23.8996 14.457V15.4598V16.2378H15.3415V15.4598V14.457C15.3415 13.9365 14.7416 13.9038 14.0017 13.9038H12.7911C12.0512 13.9038 11.4514 13.9365 11.4514 14.457V15.6209V16.637C9.50169 18.6629 3.12198 27.2872 2.89014 28.3313L2.89325 35.2984C2.89325 35.9418 3.41685 36.4654 4.06027 36.4654H35.1808C35.8242 36.4654 36.3478 35.9418 36.3478 35.2984V28.2963C36.1183 27.2825 29.7402 18.6621 27.7897 16.6362V15.6209ZM14.9198 29.2688C14.2935 29.2688 13.7854 28.7615 13.7854 28.1344C13.7854 27.5074 14.2935 27.0001 14.9198 27.0001C15.5461 27.0001 16.0541 27.5074 16.0541 28.1344C16.0541 28.7615 15.5461 29.2688 14.9198 29.2688ZM14.9198 25.3787C14.2935 25.3787 13.7854 24.8715 13.7854 24.2444C13.7854 23.6173 14.2935 23.11 14.9198 23.11C15.5461 23.11 16.0541 23.6173 16.0541 24.2444C16.0541 24.8715 15.5461 25.3787 14.9198 25.3787ZM14.9198 21.4894C14.2935 21.4894 13.7854 20.9822 13.7854 20.3551C13.7854 19.7288 14.2935 19.2208 14.9198 19.2208C15.5461 19.2208 16.0541 19.7288 16.0541 20.3551C16.0541 20.9822 15.5461 21.4894 14.9198 21.4894ZM19.5879 29.2688C18.9616 29.2688 18.4535 28.7615 18.4535 28.1344C18.4535 27.5074 18.9616 27.0001 19.5879 27.0001C20.2149 27.0001 20.7222 27.5074 20.7222 28.1344C20.7222 28.7615 20.2149 29.2688 19.5879 29.2688ZM19.5879 25.3787C18.9616 25.3787 18.4535 24.8715 18.4535 24.2444C18.4535 23.6173 18.9616 23.11 19.5879 23.11C20.2149 23.11 20.7222 23.6173 20.7222 24.2444C20.7222 24.8715 20.2149 25.3787 19.5879 25.3787ZM19.5879 21.4894C18.9616 21.4894 18.4535 20.9822 18.4535 20.3551C18.4535 19.7288 18.9616 19.2208 19.5879 19.2208C20.2149 19.2208 20.7222 19.7288 20.7222 20.3551C20.7222 20.9822 20.2149 21.4894 19.5879 21.4894ZM24.2559 29.2688C23.6289 29.2688 23.1216 28.7615 23.1216 28.1344C23.1216 27.5074 23.6289 27.0001 24.2559 27.0001C24.883 27.0001 25.3903 27.5074 25.3903 28.1344C25.3903 28.7615 24.883 29.2688 24.2559 29.2688ZM24.2559 25.3787C23.6289 25.3787 23.1216 24.8715 23.1216 24.2444C23.1216 23.6173 23.6289 23.11 24.2559 23.11C24.883 23.11 25.3903 23.6173 25.3903 24.2444C25.3903 24.8715 24.883 25.3787 24.2559 25.3787ZM24.2559 21.4894C23.6289 21.4894 23.1216 20.9822 23.1216 20.3551C23.1216 19.7288 23.6289 19.2208 24.2559 19.2208C24.883 19.2208 25.3903 19.7288 25.3903 20.3551C25.3903 20.9822 24.883 21.4894 24.2559 21.4894Z" fill="white"/>
</svg>
