<svg width="40" height="40" viewBox="0 0 40 40" fill="none" xmlns="http://www.w3.org/2000/svg">
<path d="M20 40C31.0283 40 40 31.0283 40 20C40 8.97167 31.0283 0 20 0C8.97167 0 0 8.97167 0 20C0 31.0283 8.97167 40 20 40ZM20 2.5C29.65 2.5 37.5 10.35 37.5 20C37.5 29.65 29.65 37.5 20 37.5C10.35 37.5 2.5 29.65 2.5 20C2.5 10.35 10.35 2.5 20 2.5Z" fill="white"/>
<path d="M13.1599 23.5916L15.7733 22.4566L15.0399 23.1916C14.8049 23.4266 14.6733 23.7449 14.6733 24.0749V28.9666C14.6733 30.0866 16.0266 30.6299 16.8066 29.8499L19.4299 27.2266L25.1466 30.0849C25.8866 30.4549 26.7816 30.0166 26.9349 29.1899L30.1966 11.2549C30.3683 10.2899 29.4183 9.50993 28.5099 9.8666L7.31661 18.1616C6.36661 18.5316 6.23994 19.8316 7.09994 20.3799L11.9899 23.4999C12.3399 23.7233 12.7816 23.7583 13.1599 23.5916ZM27.3366 13.0133L24.7749 27.1049L19.7416 24.5899C19.2549 24.3466 18.6749 24.4483 18.2999 24.8249L17.1733 25.9516V24.5966L22.1849 19.5849C23.1566 18.6133 22.0633 17.0099 20.8033 17.5549L12.7749 21.0383L10.5183 19.5983L27.3366 13.0133Z" fill="white"/>
</svg>
