<svg width="41" height="40" viewBox="0 0 41 40" fill="none" xmlns="http://www.w3.org/2000/svg">
<path fill-rule="evenodd" clip-rule="evenodd" d="M34.6096 5.81299C30.8494 2.06641 25.8486 0.00219726 20.5212 0C9.54333 0 0.608975 8.89136 0.604559 19.8196C0.603087 23.313 1.52007 26.7231 3.26303 29.729L0.4375 40L10.9956 37.2437C13.9048 38.823 17.18 39.6553 20.5131 39.6562H20.5214C31.498 39.6562 40.4333 30.7642 40.4375 19.8354C40.4397 14.5391 38.37 9.55933 34.6096 5.81299ZM20.5212 36.3088H20.5143C17.544 36.3076 14.6309 35.5132 12.089 34.0125L11.4847 33.6553L5.21942 35.291L6.89172 29.2117L6.49799 28.5884C4.8409 25.9653 3.96586 22.9336 3.96733 19.8208C3.97076 10.7375 11.3969 3.34766 20.5278 3.34766C24.9493 3.34912 29.1057 5.06494 32.231 8.17896C35.3563 11.293 37.0764 15.4321 37.075 19.8342C37.071 28.9182 29.6454 36.3088 20.5212 36.3088ZM29.6012 23.9702C29.1037 23.7222 26.657 22.5244 26.2007 22.3589C25.7449 22.1936 25.4127 22.1113 25.0813 22.6069C24.7494 23.1025 23.7959 24.2183 23.5054 24.5486C23.215 24.8792 22.925 24.9207 22.4272 24.6726C21.9295 24.4248 20.3261 23.9016 18.4252 22.2144C16.9459 20.9011 15.9473 19.2793 15.6568 18.7837C15.3668 18.2876 15.6544 18.0454 15.8751 17.7729C16.4139 17.1072 16.9533 16.4092 17.1191 16.0789C17.2852 15.7483 17.202 15.459 17.0774 15.2112C16.9533 14.9634 15.9581 12.5256 15.5435 11.5337C15.1392 10.5684 14.7293 10.6987 14.4236 10.6836C14.1337 10.6692 13.8017 10.6663 13.4698 10.6663C13.1382 10.6663 12.599 10.79 12.1427 11.2861C11.6866 11.782 10.4012 12.98 10.4012 15.4177C10.4012 17.8555 12.1844 20.2104 12.4331 20.541C12.6819 20.8716 15.9424 25.874 20.9343 28.019C22.1216 28.5298 23.0484 28.8342 23.7713 29.0625C24.9636 29.4395 26.0481 29.3862 26.9057 29.2588C27.8619 29.1165 29.8497 28.0605 30.2648 26.9038C30.6794 25.7468 30.6794 24.7554 30.5548 24.5486C30.4306 24.342 30.0987 24.2183 29.6012 23.9702Z" fill="white"/>
</svg>
